<?xml version="1.0" encoding="UTF-8"?>
<svg viewBox="0 0 640 480" xmlns="http://www.w3.org/2000/svg">
 <g opacity=".6">
  <path d="m311.72 45.858c2.9183 8.0982 16.59 12.817 18.925 26.399 2.3595 13.723-8.134 20.315-15.625 17.706l0.1445 27.825c3.8349-9.9063 10.572-16.743 19.927-20.262-1.6878-6.0257-3.6041-12.817 3.4487-20.706 7.0528-7.8887 24.297 0.43644 33.194-1.0519-3.0718 6.6452-2.3467 19.096-8.6118 27.17-6.4419 8.3024-21.912 6.4131-25.287-2.3364-9.1049 4.2725-16.193 15.318-17.522 16.959-1.3982 1.7272-4.5911 6.4995-4.5911 11.299v36.569c2.2649-3.3023 5.8309-7.0417 8.6741-9.3242 0.048187 1.9425 0.32306 9.1914 0.28915 11.073-2.6359 3.1402-4.6172 6.2254-6.361 10.053 0.096344 1.8697-0.57834 29.818-0.86746 44.728 6.602-23.457 20.089-56.553 21.252-59.151 1.1084-2.4768 2.6714-4.1958 2.3131-6.4105-0.38126-2.3564-2.7297-5.7835-2.8657-9.4766-6.2091 2.4812-14.365-0.57936-16.33-8.7029-1.9577-8.0911 9.4532-20.73 11.287-28.857 4.6205 6.4127 15.442 6.918 19.75 17.019 4.2691 10.008-2.3531 14.47-8.2927 18.252 0.79297 3.5331 0.57398 6.7748 0.64416 10.162 6.4092-8.6929 17.447-23.554 19.157-25.496 1.6403-1.8625 1.8044-3.7265 1.9992-6.1794 0.21719-2.7361-0.54178-8.2927-2.0838-13.052 1.9757-0.38849 4.3955-1.0684 6.3713-1.4569 2.1203 4.2251 1.783 10.636 1.8794 15.298 12.653-11.949 14.643-19.271 14.447-27.887-6.536-1.3871-14.097-8.6091-11.412-19.182 2.6879-10.585 21.593-14.076 27.724-19.172 1.5396 17.557 11.778 18.209 9.8345 29.029-1.9254 10.72-12.16 11.987-20.274 11.486-0.41217 4.3506-1.4024 8.9926-3.8384 12.76 3.1688-0.24899 7.0352-0.39788 10.408-0.15978 3.1316-7.022 7.744-13.734 18.122-11.214 10.412 2.5274 15.892 23.864 22.881 25.9-10.947 2.9725-17.799 10.188-28.708 10.344-10.809 0.15402-16.491-6.9347-14.19-18.906-7.3566 0.44723-9.2255-2.2259-13.862 1.9041-4.7076 4.1933-18.318 17.112-26.167 28.119 4.7454-2.2885 9.0641-2.514 13.444-3.565 0.2915-6.2549 3.6202-12.886 14.427-13.596 10.819-0.71077 18.595 18.761 25.382 20.235-10.409 1.8888-12.669 12.586-25.81 15.084-13.167 2.5028-16.683-9.8931-15.491-16.527-14.114 2.1117-20.192 7.1105-26.907 24.074-6.7656 17.09-16.643 41.309-24.082 72.003 3.9527-7.4861 8.3825-15.522 13.015-21.876 4.5821-6.2851 8.2855-14.896 8.8513-18.142l6.687-2.4622 0.4089 3.5027c-1.2736 1.9115-2.3171 6.3185-3.4756 9.4778 9.4732-7.2527 10.85-9.4061 13.24-19.573-6.6793-0.024521-13.231-2.8261-12.726-13.728 0.5054-10.914 16.982-16.055 19.812-22.724 2.3387 7.4688 15.031 13.576 15.302 24.568 0.26831 10.89-7.1475 12.643-15.633 13.324l-3.4341 8.2071c20.658-10.434 30.184-2.5106 45.059-19.646-6.5404-2.5788-13.035-11.201-5.7234-19.885 7.3831-8.769 22.915-4.8723 31.152-8.0261-0.95294 9.3455 3.2518 23.707-1.1352 29.797-4.3179 5.9944-15.355 6.1184-20.558 0.44925-2.1922 3.9621-5.5088 6.2759-9.0298 8.7956 13.989-1.3624 26.854 1.2929 35.834 7.3479 1.6073-6.5335 5.739-12.216 16.273-11.031 10.551 1.187 16.559 21.238 19.351 29.018-8.5932 1.4296-17.478 9.1855-28.77 6.462-11.429-2.7564-12.312-14.331-8.9167-20.138-10.61-5.569-26.067-6.7891-40.416-7.4354 4.7708 3.0595 6.9513 4.9449 9.8364 9.34 5.7699-2.2475 14.922-3.1385 20.738 3.3552 5.8888 6.5745-0.27332 26.27-2.8006 33.947-11.79-3.0415-20.081-6.8339-25.643-13.438-5.4897-6.5194-4.0564-18.789 2.2417-22.161-7.2695-7.9761-10.225-8.2935-15.313-7.8454-5.0952 0.44873-23.701 7.562-29.093 10.703 3.1949 0.56574 6.8679 2.178 8.9564 5.0553 4.758-4.7243 13.621-8.8205 20.883-0.72417 7.2704 8.1056 0.59409 25.105 0.37982 33.072-11.79-3.0414-18.924-1.021-26.799-8.6304-7.8029-7.5393-4.3632-17.965 1.7181-21.045 0.066315-0.00618-6.5839-2.6286-10.921-2.3372-4.3371 0.29138-12.144 11.073-16.481 18.94-4.3371 7.8674-7.5175 18.649-7.8067 27.682-0.28909 9.033 1.3014 61.324 2.8213 75.833 1.5198 14.509 15.61 29.772 48.773 19.47 33.106-10.284 45.086 2.7475 51.158 6.8268 6.0718 4.0794 5.1651 16.16 4.0478 19.96-1.1565 3.9336-2.0239 5.0992-2.313-2.4768-0.28915-7.5759-8.7835-15.88-11.097-17.337-2.3131-1.457-5.6382-2.9138-5.6382 0.29129 0 3.2052 3.0359 15.152 5.0599 20.106 2.0239 4.9536-4.6284 1.0176-6.9393-1.4568-2.313-2.4768-5.2044-13.404-6.0718-18.357-0.86731-4.9536-12.539-1.8336-15.902-1.4569-3.9033 0.43701-14.457 4.0793-14.457 4.0793s6.2412 3.994 9.9999 6.3252c3.7587 2.331 6.7653 8.7567 7.2284 13.112 0.43366 4.0794 1.9036 8.0281 3.9033 11.655 1.9996 3.6274-1.4457 1.6026-4.6261-0.43704-3.1805-2.0398-6.2164-9.4701-7.6621-14.132-1.4457-4.6621-6.3858-8.6562-10.434-9.8218-4.0479-1.1654-15.469-1.7483-15.469-1.7483s6.9392 4.2251 10.698 7.139c3.7587 2.9138 5.314 13.052 4.7357 15.966-0.57825 2.9138-0.72284 13.695 0.14456 17.774 0.8674 4.0794-0.57822 4.9535-4.0478-0.87418-3.4696-5.8276-3.4678-13.744-3.6142-21.125-0.14648-7.3819-5.0248-7.2242-9.3618-11.012-4.3371-3.788-6.3609-2.6225-9.8306-3.788s-10.409-5.2449-14.168-7.8673c-3.7588-2.6225-8.9632-6.7019-8.9632-6.7019s3.4696 5.0993 8.674 10.927c5.2045 5.8277 1.8794 14.715-1.5902 19.377-3.4697 4.6621-5.2045 13.841-3.7588 17.046 1.4457 3.2052 2.1166 9.8515 1.3011 13.549-0.8674 3.9336-2.1684 1.1654-2.6022-2.9138-0.46301-4.3557-2.7467-7.576-4.1924-12.53-1.4457-4.9536-1.1565-11.073 3.1804-18.503 4.3315-7.4208 1.3012-11.218-1.0119-12.675-2.3131-1.4569-2.3905-2.7681-9.7852-11.655-7.3946 9.4701-7.472 10.781-9.7852 12.238-2.3131 1.4569-5.3434 5.2545-1.012 12.675 4.337 7.4303 4.6262 13.549 3.1805 18.503-1.4457 4.9537-3.7293 8.174-4.1924 12.53-0.43375 4.0793-1.7348 6.8474-2.6022 2.9138-0.81543-3.6978-0.14459-10.344 1.3011-13.549 1.4457-3.2052-0.28915-12.384-3.7588-17.046-3.4696-4.6622-6.7946-13.549-1.5902-19.377 5.2044-5.8277 8.674-10.927 8.674-10.927s-5.2044 4.0794-8.9632 6.7019c-3.7588 2.6224-10.698 6.7019-14.168 7.8674-3.4696 1.1656-5.4936 0-9.8306 3.788-4.3371 3.7879-9.8288 3.8364-9.9752 11.218-0.14648 7.3819-0.14465 15.298-3.6142 21.125-3.4696 5.8277-4.9154 4.9535-4.0479 0.87415 0.86743-4.0793 0.72281-14.861 0.14453-17.774-0.57819-2.9138 1.5903-13.258 5.349-16.172 3.7588-2.9139 10.698-7.139 10.698-7.139s-11.421 0.58276-15.469 1.7484c-4.0478 1.1656-9.3969 4.9535-10.842 9.6157-1.4457 4.6621-4.4816 12.092-7.6621 14.132-3.1805 2.0397-6.6259 4.0645-4.6262 0.43707 1.9996-3.6274 3.4696-7.576 3.9033-11.655 0.46304-4.3556 3.4696-10.781 7.2284-13.112s10.409-6.119 10.409-6.119-10.553-3.6423-14.457-4.0794c-3.3635-0.37668-15.035-3.4966-15.902 1.4569-0.8674 4.9535-3.7588 15.88-6.0719 18.357-2.311 2.4745-8.9632 6.4105-6.9392 1.4569 2.024-4.9535 5.0599-16.9 5.0599-20.106 0-3.2053-3.325-1.7483-5.6382-0.29138-2.313 1.457-11.421 9.7614-11.71 17.337-0.28918 7.5759-1.1566 6.4105-2.3131 2.4767-1.1172-3.7999-2.0239-15.88 4.048-19.96 6.0718-4.0794 19.074-17.523 52.18-7.239 33.164 10.302 47.253-4.9615 48.773-19.47 1.5198-14.509 2.7014-66.388 2.4123-75.421-0.28918-9.0329-3.4697-19.814-7.8066-27.682-4.3371-7.8674-12.144-18.648-16.481-18.94-4.3371-0.29141-10.987 2.331-10.921 2.3372 6.0813 3.0805 9.521 13.506 1.7182 21.045-7.8753 7.6094-15.01 5.5891-26.799 8.6305-0.21436-7.9675-6.8907-24.967 0.37976-33.072 7.2622-8.0964 16.125-4.0001 20.883 0.7242 2.0885-2.8773 5.7615-4.4897 8.9564-5.0554-5.392-3.1412-23.998-10.254-29.093-10.703-5.0873-0.44804-8.0431-0.13072-15.313 7.8455 6.2981 3.372 7.7314 15.642 2.2417 22.161-5.5613 6.6045-13.853 10.397-25.643 13.438-2.5274-7.6761-8.6895-27.372-2.8007-33.946 5.8166-6.4938 14.968-5.6028 20.738-3.3552 2.885-4.395 5.0656-6.2805 9.8363-9.34-14.349 0.64618-29.806 1.8662-40.416 7.4354 3.3951 5.8067 2.5126 17.381-8.9167 20.138-11.293 2.7234-20.177-5.0324-28.77-6.4621 2.7918-7.7804 8.7995-27.831 19.351-29.018 10.534-1.185 14.666 4.4978 16.273 11.031 8.9801-6.055 21.845-8.7103 35.834-7.3478-3.5211-2.5198-6.8377-4.8336-9.0298-8.7956-5.2026 5.6691-16.24 5.5452-20.558-0.44939-4.387-6.0902-0.18234-20.452-1.1352-29.797 8.2371 3.1539 23.769-0.74289 31.152 8.026 7.3115 8.6839 0.81708 17.306-5.7234 19.885 14.875 17.136 24.401 9.2124 45.059 19.646l-3.4341-8.2071c-8.4854-0.68121-15.901-2.4339-15.633-13.324 0.27072-10.992 12.963-17.099 15.302-24.568 2.8299 6.6686 19.306 11.809 19.812 22.724 0.50476 10.902-6.0467 13.704-12.726 13.728 2.3893 10.166 3.7667 12.32 13.24 19.573-1.1585-3.1593-3.044-7.855-3.4757-9.4778l0.409-4.1208 6.6869 3.0802c0.22717 2.6812 4.2691 11.857 8.8513 18.142 4.6321 6.354 7.9054 14.972 11.858 22.458-7.4396-30.694-17.317-55.496-24.082-72.586-6.7158-16.964-13.068-21.55-27.182-23.662 1.1914 6.6335-2.3246 19.03-15.491 16.527-13.141-2.4979-15.402-13.195-25.81-15.084 6.7872-1.474 14.563-20.946 25.382-20.235 10.807 0.70999 14.136 7.3409 14.427 13.596 4.3802 1.0509 8.3952 0.86427 13.14 3.1528-7.8485-11.006-20.303-22.76-25.01-26.953-4.6366-4.13-7.0838-2.0398-14.44-2.4869 2.3011 11.972-3.3817 19.06-14.19 18.906-10.909-0.15544-17.761-7.3711-28.708-10.344 6.9893-2.0363 12.469-23.373 22.881-25.9 10.378-2.5192 14.991 4.1924 18.122 11.214 3.373-0.23811 6.9502-0.9633 10.119-0.7143-2.436-3.7678-3.4263-7.827-3.8384-12.178-8.1139 0.50123-18.348-0.76598-20.274-11.486-1.9434-10.819 8.295-11.471 9.8346-29.029 6.1302 5.0955 25.036 8.5866 27.724 19.172 2.685 10.573-4.8764 17.795-11.412 19.182-0.19598 8.6158 3.2401 15.646 15.893 27.596 0.096344-4.6622-0.24097-11.073 1.8793-15.298 1.9758 0.3885 3.3732 1.0684 5.349 1.4569-1.542 4.7593-2.0965 10.522-1.8793 13.258 0.19467 2.453-0.049957 4.1109 1.5902 5.9733 1.7107 1.9426 12.818 17.386 19.228 26.079 0.07016-3.3873-0.1488-6.629 0.6442-10.162-5.9396-3.7826-12.562-8.2441-8.2928-18.252 4.3088-10.101 15.13-10.606 19.75-17.019 1.8337 8.1271 13.245 20.766 11.287 28.857-1.9656 8.1236-10.121 11.184-16.33 8.7028-0.13599 3.693-1.3279 6.5374-1.7092 8.8939-0.35831 2.2147 0.048218 4.5165 1.1566 6.9933 1.1628 2.5983 15.806 35.112 22.408 58.568-0.28915-14.909-0.96378-42.858-0.86743-44.728-1.7438-3.8273-3.7251-6.9125-6.361-10.053-0.033936-1.8811 0.24094-9.13 0.28909-11.073 2.8432 2.2825 6.4092 6.022 8.6741 9.3244v-36.569c0-4.7998-3.8063-7.3058-5.2044-9.0329-1.3286-1.6413-11.279-11.862-17.93-18.813-3.375 8.7495-20.106 9.2436-24.265 1.9243-4.1232-7.2572-3.0866-17.228-3.705-30.673 8.8974 1.4884 22.257 0.58068 28.696 7.0271 6.5118 6.5188 4.7276 12.208 3.0398 18.233 6.6972 7.4338 13.23 12.828 19.927 20.262l0.1446-27.826c-6.4689 1.5781-19.416-4.1896-17.056-17.912 2.3352-13.581 17.438-18.677 20.356-26.775z" fill-rule="evenodd" stroke="#000" stroke-width="1.417"/>
 </g>
</svg>
