<?xml version="1.0" encoding="utf-8"?>
<!-- Generator: Adobe Illustrator 27.5.0, SVG Export Plug-In . SVG Version: 6.00 Build 0)  -->
<svg version="1.1" xmlns="http://www.w3.org/2000/svg" xmlns:xlink="http://www.w3.org/1999/xlink" x="0px" y="0px"
	 viewBox="0 0 500 500" style="enable-background:new 0 0 500 500;" xml:space="preserve">
<g id="Floor">
	<path id="Floor_8_" style="fill:#F5F5F5;" d="M80.769,407.277c92.821,59.561,243.315,59.563,336.135,0.002
		c92.822-59.563,92.822-156.132,0-215.693c-92.821-59.562-243.315-59.562-336.136-0.002
		C-12.053,251.146-12.053,347.716,80.769,407.277z"/>
</g>
<g id="Plants">
	<g id="Plants_6_">
		<g id="XMLID_264_">
			<g id="XMLID_269_">
				<path id="XMLID_941_" style="fill:#37474F;" d="M438.811,347.639l-4.632-2.646c0,0-2.222-12.243-0.56-22.767
					c2.336-14.796,12.411-19.9,16.069-18.429c3.659,1.471,4.519,5.854-2.089,14.403C443.7,323.243,438.686,333.907,438.811,347.639z
					"/>
			</g>
			<g id="XMLID_265_">
				<path id="XMLID_266_" style="fill:#FFFFFF;" d="M437.132,341.762c0.016,0,0.03-0.001,0.046-0.003
					c0.181-0.025,0.307-0.192,0.282-0.372c-1.914-13.853,3.656-29.03,9.916-35.146c0.13-0.127,0.133-0.337,0.005-0.467
					c-0.128-0.129-0.337-0.133-0.467-0.005c-6.373,6.228-12.051,21.652-10.108,35.709
					C436.828,341.642,436.97,341.762,437.132,341.762z"/>
			</g>
		</g>
		<g id="XMLID_253_">
			<g id="XMLID_262_">
				<path id="XMLID_263_" style="fill:#455A64;" d="M451.662,355.063c0.732,0.42,2.24-0.499,2.818-0.886
					c0.989-0.664,1.79-1.603,2.323-2.667c0.619-1.237,0.776-2.563,0.582-3.931c-0.101-0.71-0.299-1.401-0.497-2.09
					c-0.194-0.676-0.389-1.353-0.583-2.029c-0.192-0.667-0.386-1.358-0.298-2.047c0.178-1.388,1.409-2.36,2.529-3.198
					c1.238-0.927,2.528-2.151,2.521-3.822c-0.005-1.289-0.673-2.486-1.472-3.498c-0.799-1.012-1.747-1.905-2.469-2.973
					c-0.52-0.769-0.925-1.672-0.841-2.596c0.052-0.574,0.29-1.115,0.565-1.622c0.59-1.088,1.368-2.084,1.775-3.253
					c0.407-1.169,0.349-2.622-0.563-3.458c-0.749-0.686-1.861-0.782-2.875-0.715c-0.938,0.062-1.853,0.485-2.674,0.941
					c-2.652,1.475-4.166,4.616-6.98,5.751c-1.086,0.438-2.275,0.534-3.406,0.833c-1.132,0.299-2.285,0.877-2.809,1.924
					c-1.033,2.064,0.884,4.607,0.158,6.797c-0.643,1.939-2.526,2.68-3.584,4.427c-0.463,0.764-0.569,1.647-0.495,2.538
					c0.126,1.507,0.347,2.612,1.07,4.288c0.598,1.385,2.353,3.863,2.353,3.863C438.855,347.682,451.55,354.998,451.662,355.063z"/>
			</g>
			<g id="XMLID_258_">
				<path id="XMLID_261_" style="fill:#FFFFFF;" d="M444.143,351.057c0.005,0,0.009,0,0.009,0c0.187-0.008,0.328-0.162,0.321-0.344
					c-0.546-13.112,5.632-27.587,10.125-31.792c0.133-0.125,0.14-0.333,0.016-0.467c-0.125-0.133-0.333-0.139-0.467-0.016
					c-4.583,4.29-10.886,19.006-10.334,32.302C443.82,350.918,443.967,351.057,444.143,351.057z"/>
			</g>
			<g id="XMLID_256_">
				<path id="XMLID_257_" style="fill:#FFFFFF;" d="M446.108,335.566c0.032,0,0.065-0.005,0.097-0.015
					c4.212-1.302,9.463-1.532,9.515-1.534c0.182-0.008,0.324-0.162,0.317-0.344c-0.008-0.182-0.146-0.326-0.344-0.317
					c-0.054,0.003-5.387,0.235-9.683,1.563c-0.174,0.054-0.272,0.239-0.218,0.413C445.836,335.475,445.966,335.566,446.108,335.566z
					"/>
			</g>
		</g>
	</g>
</g>
<g id="Arrows">
	<g id="Trails">
		<g>
			<polygon style="fill:#27DEBF;" points="129.402,203.254 107.22,216.061 369.704,380.413 414.067,354.8 			"/>
			<polygon style="fill:#27DEBF;" points="96.129,196.842 92.432,224.589 144.189,194.707 			"/>
		</g>
		<g id="XMLID_245_">
			<path id="XMLID_254_" style="fill:#27DEBF;" d="M384.491,371.87l-33.273,19.215l-35.123-20.278
				c-35.942-20.751-81.232-34.919-130.969-40.974c-36.446-4.438-74.564-4.293-110.918,0.378l-6.097-15.104l22.694-3.512
				c40.46-6.26,83.514-6.933,124.506-1.944c50.911,6.199,97.267,20.701,134.056,41.942L384.491,371.87z"/>
			<polygon id="XMLID_260_" style="fill:#27DEBF;" points="61.793,301.438 82.12,345.239 41.108,328.17 			"/>
		</g>
		<g id="XMLID_244_">
			<path id="XMLID_255_" style="fill:#27DEBF;" d="M432.552,344.127l-33.272,19.21l-35.123-20.278
				c-36.79-21.24-61.909-48.004-72.644-77.396c-8.642-23.663-7.481-48.519,3.365-71.885l6.079-13.1l28.783-2.67
				c-10.59,22.825-11.729,47.109-3.283,70.226c10.489,28.717,35.03,54.865,70.971,75.616L432.552,344.127z"/>
			<polygon id="XMLID_259_" style="fill:#27DEBF;" points="274.498,179.879 350.363,191.615 320.798,167.936 			"/>
		</g>
		<polygon id="XMLID_586_" style="fill:#27DEBF;" points="340.127,384.681 377.098,406.026 458.43,359.069 421.46,337.724 		"/>
	</g>
</g>
<g id="Shadow">
	<ellipse id="Shadow_3_" style="opacity:0.1;" cx="385.521" cy="361.866" rx="38.967" ry="22.498"/>
	<path id="Shadow_1_" style="opacity:0.1;" d="M212.934,256.592c4.089,2.361,4.089,6.188,0,8.549s-10.718,2.361-14.807,0
		s-4.089-6.188,0-8.548S208.845,254.231,212.934,256.592z"/>
</g>
<g id="Question_Mark_1_">
	<g id="Question_Mark_3_">
		<path id="XMLID_11_" style="fill:#37474F;" d="M218.896,168.996L218.896,168.996l-9.319-5.373l0,0
			c-2.22-1.288-5.385-0.997-9.469,1.36c-8.943,5.163-13.493,14.903-13.493,24.108c0,4.879,1.285,8.479,3.822,10.02l9.31,5.402l0,0
			c2.241,1.347,5.46,1.081,9.636-1.33c8.943-5.163,13.337-15.022,13.337-24.227C222.72,174.054,221.433,170.484,218.896,168.996z"/>
		<path id="XMLID_10_" style="fill:#37474F;" d="M240.716,44.189l-9.481-5.453c-6.702-3.839-16.455-2.916-28.772,4.196
			c-22.282,12.864-37.657,37.432-42.365,63.371l9.275,5.355l24.791-5.526c2.824-10.835,7.06-18.511,16.788-24.127
			c1.454-0.839,2.762-1.442,3.946-1.849c0.186,1.041,0.273,2.169,0.273,3.347c0,8.368-5.648,17.905-28.242,40.363v35.565
			l9.275,5.355l26.516-15.309V129.81c13.18-14.094,28.243-35.134,28.243-60.866C250.963,56.836,247.398,48.118,240.716,44.189z"/>
		<path id="XMLID_9_" style="fill:#455A64;" d="M196.204,129.22c22.594-22.458,28.242-31.995,28.242-40.363
			c0-7.322-3.294-12.742-13.494-6.854c-9.728,5.616-13.964,13.292-16.788,24.127l-24.791,5.526
			c4.708-25.938,20.083-50.507,42.365-63.37c24.789-14.313,39.225-3.609,39.225,20.658c0,25.732-15.062,46.772-28.243,60.866v19.665
			l-26.516,15.309V129.22z"/>
		<path id="XMLID_8_" style="fill:#455A64;" d="M195.891,194.447c0-9.205,4.549-18.945,13.493-24.108
			c8.787-5.073,13.337-0.587,13.337,8.618c0,9.205-4.393,19.064-13.337,24.227C200.44,208.347,195.891,203.652,195.891,194.447z"/>
		<path id="XMLID_7_" style="fill:#263238;" d="M224.446,88.858c0,8.368-5.651,17.9-28.243,40.366l-9.27-5.354
			c22.592-22.466,28.231-31.998,28.231-40.366c0-1.176-0.08-2.306-0.262-3.345C222.026,77.705,224.446,82.579,224.446,88.858z"/>
	</g>
</g>
<g id="Character">
	<g id="Character_4_">
		<g id="XMLID_503_">
			<g id="XMLID_585_">
				<path id="XMLID_587_" style="fill:#FFA8A7;" d="M400.765,205.896c3.927-0.928,8.245,1.864,10.773,8.03
					c2.529,6.167,7.582,21.891,8.633,26.011c0.471,1.846-13.534,18.178-13.033,17.933c0.154-0.075-4.563-7.966-4.563-7.966
					l6.797-10.46l-4.257-11.357L400.765,205.896z"/>
			</g>
			<g id="XMLID_541_">
				<g id="XMLID_583_">
					<path id="XMLID_584_" style="fill:#263238;" d="M409.816,352.039c0.532,0.202,0.667,1.215,0.747,3.23
						c0.061,1.525,0.387,4.187-1.399,4.719c-1.786,0.532-4.403,0.26-5.548-1.177c-1.429-1.794-2.395-3.373-4.434-5.562
						c-1.769-1.899-3.682-3.672-4.396-6.335c-0.645-2.407-0.108-3.451,1.534-4.15c2.258-0.962,5.805,2.182,7.574,2.677
						C405.419,345.866,409.284,351.837,409.816,352.039z"/>
				</g>
				<g id="XMLID_581_">
					<path id="XMLID_582_" style="fill:#FFA8A7;" d="M409.816,350.173v2.475c0,0-2.573,1.977-6.253,0.169
						c-0.108-0.239-0.649-5.012-0.649-5.012L409.816,350.173z"/>
				</g>
				<g id="XMLID_549_">
					<path id="XMLID_550_" style="fill:#263238;" d="M391.404,365.188c0,0,0.71,2.152,1.092,4.034
						c0.304,1.496,0.74,3.996,0.216,5.122c-0.524,1.125-2.567,1.852-5.735,1.827c-2.052-0.016-5.249,1.378-7.439,2.599
						c-2.261,1.262-4.715,1.266-7.106,0.985c-2.819-0.331-5.739-1.965-6.194-3.133c-0.456-1.167,0.13-1.728,6.772-4.559
						c0.061-0.026,7.005-3.162,10.219-6.709L391.404,365.188z"/>
				</g>
				<g id="XMLID_547_">
					<path id="XMLID_548_" style="fill:#FFA8A7;" d="M391.404,362.513c0,0-0.009,1.836,0,2.886s-1.23,2.613-4.438,2.499
						c-2.253-0.081-3.826-0.686-3.737-2.542v-2.675L391.404,362.513z"/>
				</g>
				<g id="XMLID_545_">
					<path id="XMLID_546_" style="fill:#37474F;" d="M412.253,315.87c-1.133-8.085-3.02-12.727-3.02-12.727
						s1.395-10.947,2.205-21.466c1.451-18.847,0.286-25.009-3.421-33.462c0,0-31.628-3.205-32.593,9.939
						c-1.202,16.369,0.393,48.003,0.827,53.785c0.434,5.783,0.972,8.387,3.018,20.472c1.557,9.194,3.96,30.271,3.96,30.271
						c4.198,2.269,8.175-0.167,8.175-0.167s2.586-26.32,2.315-32.992c-0.332-8.147-2.53-14.564-2.53-14.564
						s1.961-26.676,2.533-30.922c0,0,0.987,8.462,1.422,14.245c0.435,5.783,2.152,11.306,3.824,22.047
						c1.451,9.318,4.147,30.143,4.147,30.143c4.198,2.269,6.877-0.247,6.877-0.247S413.385,323.955,412.253,315.87z"/>
				</g>
			</g>
			<g id="XMLID_538_">
				<g id="XMLID_539_">
					<polygon id="XMLID_540_" style="fill:#FFA8A7;" points="384.565,201.641 386.051,213.863 396.796,212.892 395.568,199.326 
											"/>
				</g>
			</g>
			<g id="XMLID_535_">
				<g id="XMLID_536_">
					<path id="XMLID_537_" style="fill:#27DEBF;" d="M408.587,212.021c-1.181-3.215-5.198-6.795-9.329-6.028
						c-1.076,0.2-2.022,0.357-3.035,0.561c-0.094,2.815-5.398,4.273-10.687,2.565c-1.59,0.456-3.045,0.92-4.367,1.392
						c-3.781,1.351-5.302,7.633-5.385,18.143c-0.083,10.509-1.202,36.723-1.202,36.723l4.422,1.39l2.066-7.668l0.832,9.185
						c4.786,1.206,9.811,1.118,15.27-0.074c11.364-2.483,14.902-8.614,14.902-8.614s-1.397-9.513-8.104-19.867
						C409.665,224.576,410.339,216.791,408.587,212.021z"/>
				</g>
			</g>
			<polygon id="XMLID_490_" style="opacity:0.2;" points="375.693,233.892 382.379,226.286 375.526,239.968 			"/>
			<path id="XMLID_4_" style="fill:#FFA8A7;" d="M383.266,209.764c0,0-6.562,0.515-9.379,4.778
				c-2.817,4.263-13.827,20.02-13.827,20.02s-17.526-8.771-18.388-9.811c-0.862-1.04-0.377-3.142-0.14-4.3
				c0.238-1.157,0.63-3.727,0.887-4.45c0.451-1.26-1.414-0.92-2.513,0.258c-1.125,1.207-1.587,3.482-2.135,3.878
				c-0.548,0.396-4.717-4.4-6.742-6.714c-2.024-2.315-2.973-3.934-4.329-2.979c-0.977,0.689-0.35,2.062,1.101,4.045
				c1.451,1.983,1.663,2.196,1.874,2.627c0.174,0.355-0.362,0.639-0.574,0.829c-0.393,0.352-1.091,0.927-1.14,1.477
				c-0.027,0.3,0.028,0.609-0.055,0.899c-0.189,0.66-1.006,0.969-1.236,1.616c-0.167,0.468,0.017,0.992-0.077,1.479
				c-0.06,0.314-0.234,0.598-0.29,0.913c-0.11,0.618,0.245,1.222,0.649,1.703c1.422,1.691,3.365,2.339,5.229,3.37
				c1.549,0.857,3.149,1.233,4.933,2.026c1.784,0.793,22.851,16.948,26.127,15.14c3.276-1.808,19.715-20.948,19.715-20.948
				C388.54,216.724,383.266,209.764,383.266,209.764z"/>
			<g id="XMLID_504_">
				<g id="XMLID_533_">
					<path id="XMLID_534_" style="fill:#263238;" d="M378.526,186.575c0,0-4.197-4.736-1.136-9.543
						c3.607-5.664,10.561-6.63,18.801-4.42c4.084,1.095,9.796,5.435,10.308,13.27c0.395,6.043-16.458,10.501-16.074,14.64
						L378.526,186.575z"/>
				</g>
				<g id="XMLID_511_">
					<path id="XMLID_512_" style="fill:#F28F8F;" d="M376.218,188.411c0,0-2.286,3.668-1.965,4.04
						c0.321,0.373,1.847,0.738,1.847,0.738L376.218,188.411z"/>
				</g>
				<g id="XMLID_508_">
					<path id="XMLID_510_" style="fill:#FFA8A7;" d="M383.194,176.797c-2.285,1.26-6.229,3.58-7.03,12.142
						c-0.82,8.79,1.212,11.782,2.437,12.899c0.828,0.753,4.995,0.922,7.147,0.19c2.693-0.916,8.497-3.982,11.133-8.578
						c3.101-5.408,3.58-12.517-0.24-15.196C391.267,174.483,385.128,175.731,383.194,176.797z"/>
				</g>
				<g id="XMLID_506_">
					<path id="XMLID_507_" style="fill:#263238;" d="M382.519,177.182c0,0-1.804,8.047,0.752,13.034c0,0,1.332-3.158,4.038-2.335
						c2.724,0.828,2.573,4.434,0.499,6.33c-2.075,1.897-4.161,1.001-4.161,1.001s1.237,3.391,4.02,6.07
						c0,0,8.009,3.571,14.945-4.257c6.293-7.103,5.123-19.492-4.515-22.414C388.459,171.689,382.519,177.182,382.519,177.182z"/>
				</g>
				<path id="XMLID_616_" style="fill:#263238;" d="M383.647,195.212v11.027l12.929-1.769c5.686-0.778,9.924-5.635,9.924-11.375
					v-7.214l-10.258,6.569l-4.852,4.294l-4.91-0.4L383.647,195.212z"/>
				<path id="XMLID_615_" style="fill:#263238;" d="M376.273,173.755c-3.46,3.716-3.38,14.17,6.998,16.461l6.247-18.683
					C385.521,169.085,379.36,170.439,376.273,173.755z"/>
				<path id="XMLID_491_" style="fill:#263238;" d="M382.309,193.107c-1.069-0.354-1.649-1.508-1.295-2.577
					c0.354-1.069,1.508-1.649,2.577-1.295L382.309,193.107z"/>
			</g>
		</g>
		<path id="XMLID_493_" style="fill:#263238;" d="M393.721,284.035l0.599-6.393c0,0,4.643-0.449,9.648-3.651
			c0,0-2.053,3.292-7.693,4.792l-0.588,8.133l-0.347,13.33L393.721,284.035z"/>
	</g>
</g>
</svg>
